/* XPM */
static char *ca71ba2bb47f4c8ef1c397f0caaacd82XQWGtZr01QbR4RB6[] = {
/* columns rows colors chars-per-pixel */
"32 32 24 1 ",
"  c black",
". c #070401",
"X c #0A0502",
"o c #0D0702",
"O c #1D0F05",
"+ c #211105",
"@ c #251306",
"# c #261306",
"$ c #291506",
"% c #2D1707",
"& c #301807",
"* c #311907",
"= c #3B1E09",
"- c #814114",
"; c #894615",
": c #A25219",
"> c #A75519",
", c #AD581A",
"< c #CB681F",
"1 c #D26B20",
"2 c #A97A58",
"3 c #B9835A",
"4 c #E49861",
"5 c #EBAA7A",
/* pixels */
"55555555555555555555555555555555",
"44444444444444324444444444444432",
"11111111111111= 11111111111111= ",
"11111111111111= 11111111111111= ",
"11111111111111= 11111111111111= ",
"<<<<<<<<<<<<<<= <<<<<<<<<<<<<<= ",
"                                ",
"$%$%$$ .+$%$%$%$%$%$%$%+X $$%$%$",
">>>>>: O->>>>>>>>>>>>>>;@ :>>>>>",
"11111< @:11111111111111,* <11111",
"11111< @:11111111111111,* <11111",
"11111< @:11111111111111,* <11111",
"11111< @:11111111111111,* <11111",
"11111< @:11111111111111,% <11111",
"====== X%==============*o ======",
"                                ",
"11111111111111= 11111111111111= ",
"11111111111111= 11111111111111= ",
"11111111111111= 11111111111111= ",
"11111111111111= 11111111111111= ",
"11111111111111= 11111111111111= ",
"<<<<<<<<<<<<<<= <<<<<<<<<<<<<<= ",
"                                ",
"$%$%$$ X+$%$$%$%%$%$%$%+X $$%$%$",
">>>>>: O->>>>>>>>>>>>>>;@ :>>>>>",
"11111< @:11111111111111,* <11111",
"11111< @:11111111111111,* <11111",
"11111< @:11111111111111,* <11111",
"11111< #:11111111111111,* <11111",
"11111< #:11111111111111,% <11111",
"====== o%==============*o ======",
"                                "
};
