/* XPM */
static char *c32e74c62f5a4028a0ee7ff1a56284f5cl0BujVqBEKF41LI[] = {
/* columns rows colors chars-per-pixel */
"32 32 72 1 ",
"  c #8B781B",
". c #8B791C",
"X c #8C7A1C",
"o c #8C7A1D",
"O c #927F1D",
"+ c #97831F",
"@ c #9C891E",
"# c #9C881F",
"$ c #9A8620",
"% c #9F8C29",
"& c #A18C20",
"* c #AB9423",
"= c #AC9721",
"- c #B39B23",
"; c #B69D24",
": c #BEA426",
"> c #BFA626",
", c #C2A827",
"< c #CAAF28",
"1 c #CBB029",
"2 c #CFB329",
"3 c #D2B62A",
"4 c #D4B82A",
"5 c #D5B82A",
"6 c #D6BA2B",
"7 c #D8BB2B",
"8 c #D9BC2B",
"9 c #DBBD2C",
"0 c #C9B031",
"q c #DDC02C",
"w c #E6C72A",
"e c #E2C32D",
"r c #E2C62F",
"t c #E6C72D",
"y c #E4C72F",
"u c #E7C62E",
"i c #E8C42A",
"p c #E7C92B",
"a c #E6C82E",
"s c #E3C530",
"d c #E4C730",
"f c #E7C630",
"g c #E6C731",
"h c #E5C831",
"j c #E6C835",
"k c #E6CA34",
"l c #E8C934",
"z c #E9CB38",
"x c #E9CC3A",
"c c #EACC3C",
"v c #E6CB43",
"b c #E7CB43",
"n c #E0C751",
"m c #EACF50",
"M c #EBD258",
"N c #F0D551",
"B c #F1D653",
"V c #F1D755",
"C c #F0D656",
"Z c #F1D856",
"A c #F3DA5C",
"S c #F3DA5D",
"D c #ECD66A",
"F c #EDD66A",
"G c #F8EDC1",
"H c #F8F2CE",
"J c #FBF5DC",
"K c #FBF8E5",
"L c #FCF8E4",
"P c #FAFFFD",
"I c #FFFEFC",
"U c white",
/* pixels */
"UUUUUUUUULLLHsaatarHLKLUUUUUUUUU",
"UUUUUUUJGitsts4235rhrgiGJUUUUUUU",
"UUUUUUPDmftgg5&+O&5hfttmDPUUUUUU",
"UUUUUJDhttt$o+1871$&*fgatDJUUUUU",
"UUUUHhat3 X8ttaattgt8*;8tagHUUUU",
"UUUJrat5#ttttgaatgtttpw,qahsJUUU",
"UUPDttt#5tttgaaagtgtttt9,attDPUU",
"UJDgt5#2tgta8X  o%nlttgtq5etgDJU",
"UGmt2+5aattt8 -,:0Mlttttte3gtmGU",
"Littotuatgtg8 -:,0MztgtgtttvtgiL",
"Kttgoattgttt8 -::0MlgttttttvttrL",
"Krt+7tgttttg8 -,:0MktttggttgCttL",
"Hsaotttgttgt8X-::0MxttgtttttStsH",
"ts5$gttttgtt8 -::0ZktgtttgtgZkht",
"a6&1tgtgtttt8 -::0MkttttgtttxNza",
"t3O7tttttgtg8 -,:0MktgtgttttkSza",
"t3+7tgtgtgtt8 -:,0MktgtgtttglSla",
"t5&<tttttttt8 -::0MlttttgtttcNxt",
"gs6$tgtttgpt8 -,,0MxtgtttgtgZkht",
"HrtXttgtttaa8 -::0MlttgtttttSasH",
"Lsh+8aawtttg8 -,:1MxaatgtgtjZtsK",
"Ltta phagttt8 -:>0MktttttttSawaK",
"Lwtg#ptgtgtg8 -:>0MktgtgttpSttwL",
"UGmt5*8ttttt8 -,>0MxtttttzNxtmGU",
"UJDgt7*5uaatlSSASSSltgtgcClghDJU",
"UUPDttp,9tgttgaaatgttttkNittDUUU",
"UUUJahuq,uttttttttgttgwNhthtJUUU",
"UUUUHgtp8:<etgtgttttkSSxhagHUUUU",
"UUUUUJDhttt5cbkllcNSNaathDJUUUUU",
"UUUUUUPDmtttsbbCSNlatttmDPUUUUUU",
"UUUUUUUJGwarskgkxkhhrtwGJUUUUUUU",
"UUUUUUUUUKKKHggtaaaHKKLIUUUUUUUU"
};
