/* XPM */
static char *_f03b5154eb74e04c07f5c9f3a3b6764gZzm5ObAuj5jmNEi[] = {
/* columns rows colors chars-per-pixel */
"32 32 138 2 ",
"   c #7A365D",
".  c #6D2D78",
"X  c red",
"o  c #FF0201",
"O  c #FF0D0A",
"+  c #E21D00",
"@  c #FF120D",
"#  c #FF140F",
"$  c #EF0013",
"%  c #ED0016",
"&  c #EB0018",
"*  c #FF1E1E",
"=  c #EC2A11",
"-  c #FF2118",
";  c #FF2B1F",
":  c #D00038",
">  c #FF2C2C",
",  c #F93B26",
"<  c #FF3838",
"1  c #AA5500",
"2  c #AF5F10",
"3  c #B3600F",
"4  c #B46211",
"5  c #B66515",
"6  c #B26518",
"7  c #BD6D1F",
"8  c #8D4238",
"9  c #BF7124",
"0  c #B87029",
"q  c #B9722C",
"w  c #BB7733",
"e  c #BD7B39",
"r  c #FF4331",
"t  c #FF4A3E",
"y  c #C27428",
"u  c #C4772D",
"i  c #C77B31",
"p  c #CA7E36",
"a  c #BC004F",
"s  c #B50058",
"d  c #9A0078",
"f  c #CE1E58",
"g  c #FF4444",
"h  c #FF4E46",
"j  c #FF5B43",
"k  c #FF5858",
"l  c #FF6449",
"z  c #EC6B58",
"x  c #CE843D",
"c  c yellow",
"v  c #B5A758",
"b  c #9A8778",
"n  c #D28843",
"m  c #D78F4C",
"M  c #C78F58",
"N  c #DA9351",
"B  c #D4965B",
"V  c #FF805E",
"C  c #E29D5E",
"Z  c #E29E5F",
"A  c #FF8C67",
"S  c #FF8A72",
"D  c #FF9870",
"F  c #D2A578",
"G  c #E7A467",
"H  c #ECAB70",
"J  c #EEAD73",
"K  c #FFA77A",
"L  c #F0B077",
"P  c #F5B67F",
"I  c #551DA7",
"U  c #7700A2",
"Y  c #7258A7",
"T  c #6548B7",
"R  c #3C00E7",
"E  c #3206EC",
"W  c #3800EC",
"Q  c #3813EC",
"!  c #2800FF",
"~  c #3300F2",
"^  c #4413C7",
"/  c #4E00D1",
"(  c #5F31C5",
")  c #5738C7",
"_  c #4F2FD0",
"`  c #411EE1",
"'  c #6244FF",
"]  c #7258FF",
"[  c #8D0087",
"{  c #810095",
"}  c #967FF2",
"|  c #D7AF87",
" . c #FFA88E",
".. c #F7B981",
"X. c #FABC86",
"o. c #FBBD87",
"O. c #FFBA88",
"+. c #D8BEBB",
"@. c #FFA7A7",
"#. c #F8A7B0",
"$. c #FFB5B5",
"%. c #FFC38F",
"&. c #FFC99A",
"*. c #E2C4A7",
"=. c #FDCDA2",
"-. c #F1CFAF",
";. c #FFD0A7",
":. c #FFD4AF",
">. c #E6CDB5",
",. c #EAD5BF",
"<. c #FFD8B5",
"1. c #F3D6BC",
"2. c #FFDCBF",
"3. c #9E8CE1",
"4. c #9A87FF",
"5. c #B5A7FF",
"6. c #FFC7C7",
"7. c #ECDAC7",
"8. c #FFDFC3",
"9. c #E6D6D3",
"0. c #FFDFD4",
"q. c #FFDADA",
"w. c #FFE3CA",
"e. c #FFEAD8",
"r. c #D0C7FF",
"t. c #FFE7E7",
"y. c #F7EFE7",
"u. c #FFECEC",
"i. c #FFF2E6",
"p. c #F8F0E9",
"a. c #F9F2EC",
"s. c #EBE7FF",
"d. c #F2EFFF",
"f. c #FBF8F4",
"g. c #FFF9F4",
"h. c #FFFDFB",
"j. c #FFFDFD",
"k. c white",
/* pixels */
"k.k.k.k.k.k.k.k.k.k.k.k.k.k.k.k.k.k.k.k.k.k.k.k.k.k.<.%.%.%.%.%.",
"k.k.k.k.k.k.k.k.k.k.k.k.u.t.t.t.t.t.t.t.t.u.k.k.k.k.<.%.%.%.%.%.",
"k.k.k.k.k.k.k.k.k.k.k.k.< X X X X X X X X k k.k.k.k.<.%.%.%.%.%.",
"k.k.k.k.k.k.k.k.k.k.q.6.> X X X X X X X X g 6.6.6.6. .D O.%.%.%.",
"k.k.k.k.k.k.k.k.k.k.k X X X X X X X X X X X X X X X X X D %.%.%.",
"k.k.k.k.k.k.k.k.k.k.z + + + + + r r r , + = r r h k * X l V V V ",
"k.k.k.k.k.k.k.k.k.k.M 1 1 1 1 1 %.%.%.H 1 i %.%.w.k.k X X X X X ",
"k.k.k.k.k.k.k.7.| | B n 3 1 x n %.%.%.H 1 i %.%.:.w.S j # X X X ",
"k.k.k.k.k.k.k.| 1 1 C %.7 1 ..%.%.%.%.H 1 i %.O.%.%.%.%.> X X X ",
"k.k.k.k.k.k.k.| 1 1 C %.7 1 J P %.%.%.J 2 p ....o.%.%.%., @ X X ",
"k.k.k.k.k.k.k.| 1 1 C %.7 1 9 y %.%.%.X.G N y y C %.%.%.D A O X ",
"k.k.k.k.k.k.k.| 1 1 C %.7 1 1 1 %.%.%.%.%.C 1 1 m %.%.%.%.%.# X ",
"k.k.k.k.k.k.k.| 1 1 5 7 C H H H %.%.%.L 7 5 1 1 4 7 7 7 7 7 -.6.",
"k.k.k.k.k.k.k.| 1 1 1 1 H %.%.%.%.%.%.H 1 1 1 1 1 1 1 1 1 1 y.k.",
"k.k.k.k.k.k.k.f.y.y.y.y.=.%.%.%.%.%.%.%.............u 1 >.y.k.h.",
"k.k.k.k.k.k.k.k.k.k.k.k.;.%.%.%.%.%.%.%.%.%.%.%.%.%.i 1 7.k.h.k.",
"k.k.k.6.X X X X X X X X X X R ! X X X X X s ! ! d X @.k.k.k.k.k.",
"k.k.t.$.X X X X X X X X X X / R & % X X X a R R d & #.k.k.k.p.y.",
"k.t.X X X X X X X X X X X X X X ! R X X X X X X [ ! 5.k.k.k.6 1 ",
"i.0.; - X X X X X X X X X X X X ! W : : : : : : U ! 5.k.k.k.6 1 ",
"%.%.%.D X X X X X X X X X X X X ! ! ! ! ! ! ! ! ! ! 5.k.k.k.6 1 ",
"%.%.%.K r t k k k k f s $ X a s ! ! ! Q Y ) ! ! _ Y 3.5.+.*.2 1 ",
"%.%.%.%.%.<.k.k.k.k.] ! : X R ! ! ! ! ) c v ! ! b c Y ! 8 1 1 1 ",
"8.2.%.&.8.-.| ,.k.k.] ! { d ~ ! ! ! ! ` b Y ! ! T b _ ! 8 1 1 1 ",
"k.g.%.;.k.*.1 F k.k.] ! ! ! ! ! ! ! ! ! ! ! ! ! ! ! ! ! 8 1 1 1 ",
"k.g.%.=.k.*.1 F k.k.] ! ! ! ! ! ! ! ! ! ! ! ! ! ! ! ! ! 8 1 1 1 ",
"k.h.e.1.M e 1 0 M M ( ! ! ! ! ! ! ! ! ! ! ! ! ! ! ! ! ! 8 1 1 1 ",
"k.k.k.7.1 1 1 1 1 1 I ! ! ! ! ! ! ! ! ! ! ! ! ! ! ! ! ! 8 1 1 1 ",
"k.a.e q 1 1 1   ^ ^ E ! ! ! ! ! ! ! ! ! ! ' r.r.r.r.r.r.9.7.7.7.",
"k.y.1 1 1 1 1 . ! ! ! ! ! ! ! ! ! ! ! ! ! ] k.k.k.k.k.k.k.k.k.k.",
"k.y.1 w y.y.y.} ! ! ! ! ! ! ! ! s.s.s.s.s.d.k.k.k.k.k.k.k.k.k.k.",
"k.y.1 e k.k.k.4.! ! ! ! ! ! ! ! k.k.k.k.k.k.k.k.k.k.k.k.k.k.k.k."
};
