/* XPM */
static char *f46075030e494fbda18318be8f3a2b85yS8aFBEnvkOz3RK8[] = {
/* columns rows colors chars-per-pixel */
"32 32 102 2 ",
"   c #000100",
".  c #000400",
"X  c #000800",
"o  c #020F01",
"O  c #011800",
"+  c #031D02",
"@  c #041D03",
"#  c #022E01",
"$  c #0B2E09",
"%  c #023000",
"&  c #003400",
"*  c #0E360C",
"=  c #0F380D",
"-  c #10370D",
";  c #0A4307",
":  c #11520D",
">  c #145A10",
",  c #175C13",
"<  c #066901",
"1  c #046E00",
"2  c #056F00",
"3  c #057000",
"4  c #077302",
"5  c #027400",
"6  c #007700",
"7  c #067401",
"8  c #0A7B05",
"9  c #0B7C06",
"0  c #0B7E06",
"q  c #0F7E09",
"w  c #1C6D18",
"e  c #1D6D18",
"r  c #277D21",
"t  c #277D22",
"y  c #287D21",
"u  c #287D22",
"i  c gray33",
"p  c gray39",
"a  c #0E8208",
"s  c #0E860A",
"d  c #0D8B09",
"f  c #10850A",
"g  c #13870D",
"h  c #128B0B",
"j  c #138E0D",
"k  c #179710",
"l  c #159B10",
"z  c #199C12",
"x  c #1DA315",
"c  c #20AF18",
"v  c #23AF1B",
"b  c #23B21B",
"n  c #26B81E",
"m  c #28BB1F",
"M  c #2ABF21",
"N  c #2EC624",
"B  c #2DC824",
"V  c #2FCD26",
"C  c #30CC26",
"Z  c #30CC27",
"A  c #32CA28",
"S  c #32D127",
"D  c #32D129",
"F  c #34D52A",
"G  c #34D62A",
"H  c #39D52F",
"J  c #34D92B",
"K  c #38DF2D",
"L  c #3AE32F",
"P  c #3AE52F",
"I  c #3BE630",
"U  c #3EE533",
"Y  c #3FE334",
"T  c #40F135",
"R  c #41F436",
"E  c #42F536",
"W  c #44F638",
"Q  c #44FA38",
"!  c #47FD3B",
"~  c #46FE3A",
"^  c #48FB3D",
"/  c #4AF83F",
"(  c #4DF641",
")  c #929292",
"_  c #929592",
"`  c #939893",
"'  c #96BB94",
"]  c #96BE94",
"[  c #A9A9A9",
"{  c gray71",
"}  c #94C193",
"|  c #9BC898",
" . c #9FCF9C",
".. c #A6DEA2",
"X. c #ACE6A8",
"o. c #B2F7AD",
"O. c #D0D0D0",
"+. c #D7D7D7",
"@. c #E1E1E1",
"#. c #E6E6E6",
"$. c #F4F4F4",
"%. c #F6F6F6",
/* pixels */
"%.%.%.%.%.%.%.%.%.%.%.%.%.%.%.%.%.%.%.%.%.%.%.%.%.%.%.%.%.%.%.%.",
"@.{ { { { { { { { { { { { { { { { { { { { { { { { { { { { { { @.",
"[   u u t t t t t t u u u u u t t t t t t t u t u u t t t u . [ ",
"[   d d d d / ~ ~ ~ ~ d d d d d d d d d d d d d d d d d d d X [ ",
"[   V A q 2 ( ~ ~ ~ ~ 2 M A N 2 2 2 2 2 2 2 2 v v 1 A V Z 0 X [ ",
"[ . ~ / g 2 ( ~ ~ ~ ~ 2 L ~ E 2 2 2 2 2 2 2 2 x n b M ~ ~ s . [ ",
"[ . ~ ~ g 2 ( ~ ~ ~ Q 2 L Q E 2 2 2 2 2 2 2 2 h x J l ~ ~ s X [ ",
"[ . ~ / g 2 ( ~ ~ ~ ~ 2 I ~ E 2 2 2 2 2 2 2 2 N V 0 E ~ ~ s X [ ",
"[ . ~ ^ g 2 ( ~ ~ ~ ~ 2 I Q E 2 2 2 2 2 2 2 2 3 z ~ 5 ~ ~ s   [ ",
"[ . ~ ^ g 2 ( ~ ~ ~ ~ 2 I ~ E 2 2 2 2 2 2 2 2 S D 2 ~ ~ ~ s X [ ",
"[ . ~ ^ g 2 ( ~ ~ ~ ~ 2 I Q E 2 2 2 2 2 2 2 2 2 z ~ 5 ~ ^ s X [ ",
"[ . ~ ^ g 2 ( ~ ~ ~ ~ 2 I ~ E 2 2 2 2 2 2 2 2 D D 2 ~ ~ ~ d . [ ",
"[ . ~ ! g 2 ( ~ ~ ~ ~ 2 I ~ E 2 2 2 2 2 2 2 2 2 z ^ 5 ~ ~ s . [ ",
"[ . ~ / g 2 ( ! ~ ~ ! 2 I ~ E 2 2 2 2 2 2 3 2 Z D 4 Q ~ ~ s X [ ",
"[   = = @ O - * = * = O $ * * O O O O O O O O $ $ O * = * +   [ ",
"+.)                                                         ) +.",
"%.%.p   , w & % ; w w w w : % # # % % % # e # > e w % # . i %.%.",
"%.%.%.X H ~ 6 3 z ~ ~ ~ ~ M 2 2 2 2 2 8 x M v I ~ Q 2 < o O.%.%.",
"%.%.%.. H ~ 5 3 z ~ ~ ~ ~ M 2 2 2 2 2 4 d T d J ~ ~ 2 < o O.%.%.",
"%.%.%.X H ~ 5 3 z ~ ~ ~ ~ M 2 2 2 2 2 s I g I W ~ ^ 3 < o O.%.%.",
"%.%.%.  H ~ 6 3 z ~ ~ ~ ~ M 2 2 2 2 2 8 z Z z L ~ ^ 2 < o O.%.%.",
"%.%.%.X H ~ 6 3 z ~ ~ ~ ~ M 2 2 2 2 3 9 b m b P ~ ~ 2 < o O.%.%.",
"%.%.%.  H ~ 5 2 z ~ ~ ~ ~ M 2 2 2 2 2 a G k G T ~ ~ 2 < o O.%.%.",
"%.%.%.X H ~ 5 2 z ~ ~ ~ ~ M 2 2 2 2 2 3 9 E 0 G ~ ! 3 < o O.%.%.",
"%.%.%.  H ~ 6 3 z ~ ~ ~ ~ M 2 2 2 2 2 h ~ 2 ~ ~ ~ ! 2 < o O.%.%.",
"%.%.%.X H ~ 5 3 z ~ ~ ~ ~ M 2 2 2 2 2 2 2 ~ 2 S ~ ! 3 < o O.%.%.",
"%.%.%.X H ~ 6 3 z ~ ~ ~ ~ M 2 2 2 2 2 h ~ 2 ~ ~ ~ ! 3 < o O.%.%.",
"%.%.$.. H ~ 6 3 z ~ ~ ~ ~ M 2 2 2 2 2 2 2 ~ 2 D ~ ! 3 < o O.%.%.",
"%.%.%.X H ~ 6 3 z ~ ~ ~ ~ M 2 2 2 2 2 h ! 3 ! ~ ~ ! 2 < o O.%.%.",
"%.%.%.. H ~ 5 3 z ~ ~ ~ ~ M 2 2 2 2 2 2 3 Q 4 G ~ ! 2 < o O.%.%.",
"%.%.%.. H ~ 5 3 z ~ ~ ~ ~ M 2 2 2 2 2 s K j K E ~ ! 2 < o O.%.%.",
"%.%.%._ X.o.} }  .o.o.o.o...] ] ] ] ] | o.] o.o.o.o.] ' ` #.%.%."
};
